<svg width="32" height="32" viewBox="0 0 32 32" fill="none" xmlns="http://www.w3.org/2000/svg">
<path id="2" d="M30.1211 13.7952C29.2001 13.7952 28.4338 14.4507 28.2817 15.3066H24.1396V11.879H30.1211C30.3018 11.879 30.4485 11.7357 30.4485 11.5592V4.90028C31.3247 4.74768 31.9958 4.00326 31.9958 3.10355C31.9958 2.09503 31.1535 1.27233 30.1211 1.27233C29.0886 1.27233 28.2463 2.09506 28.2463 3.10355C28.2463 4.00322 28.9175 4.75166 29.7937 4.90028L29.795 11.2446H24.1394V10.0119C24.1394 8.72468 23.0649 7.67506 21.7471 7.67506L20.4837 7.67374V5.03705H23.0784C23.2347 5.89293 23.9968 6.54846 24.9179 6.54846C25.9504 6.54846 26.7926 5.72573 26.7926 4.71725C26.7926 3.70876 25.9503 2.88603 24.9179 2.88603C23.9968 2.88603 23.2306 3.54156 23.0784 4.39745H20.1576C19.977 4.39745 19.8302 4.54076 19.8302 4.71725V7.66977H16.3253V3.62795C17.2015 3.47535 17.8727 2.73093 17.8727 1.83122C17.8727 0.822698 17.0304 0 15.9979 0C14.9655 0 14.1232 0.822732 14.1232 1.83122C14.1232 2.73089 14.7943 3.47933 15.6705 3.62795V7.67384H12.1614V1.83125C12.1614 1.65476 12.0147 1.51145 11.834 1.51145H5.01683C4.86467 0.65556 4.09984 3.0534e-05 3.17874 3.0534e-05C2.14625 3.0534e-05 1.304 0.822763 1.304 1.83125C1.304 2.83973 2.14629 3.66246 3.17874 3.66246C4.0998 3.66246 4.86603 3.00693 5.01818 2.15104L11.5119 2.14972V7.67401H10.2499C8.9321 7.67401 7.85753 8.72363 7.85753 10.0108V11.2436H5.15816V8.70905C6.0344 8.55645 6.70551 7.81203 6.70551 6.91232C6.70551 5.9038 5.86322 5.0811 4.83076 5.0811C3.79831 5.0811 2.95602 5.90384 2.95602 6.91232C2.95602 7.81199 3.62713 8.56043 4.50336 8.70905V11.562C4.50336 11.7385 4.65009 11.8818 4.83077 11.8818H7.85346V15.3095L3.71419 15.3108C3.55796 14.4549 2.79584 13.7994 1.87474 13.7994C0.842254 13.7954 0 14.6181 0 15.6266C0 16.6351 0.842288 17.4578 1.87474 17.4578C2.7958 17.4578 3.56203 16.8023 3.71419 15.9464H7.85625V19.374H1.87478C1.6941 19.374 1.54737 19.5174 1.54737 19.6938V26.3527C0.671142 26.5014 3.13427e-05 27.2445 3.13427e-05 28.1482C3.13427e-05 29.1567 0.84232 29.9794 1.87477 29.9794C2.90723 29.9794 3.74952 29.1566 3.74952 28.1482C3.74952 27.2485 3.07841 26.5 2.20217 26.3514L2.20082 20.0084H7.85641V21.2412C7.85641 22.5284 8.93098 23.578 10.2488 23.578H11.5108V26.2147H8.91606C8.75983 25.3588 7.99772 24.7033 7.07662 24.7033C6.04413 24.7033 5.20188 25.526 5.20188 26.5345C5.20188 27.543 6.04417 28.3657 7.07662 28.3657C7.99768 28.3657 8.76391 27.7102 8.91606 26.8543H11.8369C12.0175 26.8543 12.1643 26.711 12.1643 26.5345V23.582H15.6734V27.6279C14.7971 27.7805 14.126 28.5249 14.126 29.4246C14.126 30.4331 14.9683 31.2558 16.0008 31.2558C17.0332 31.2558 17.8755 30.4331 17.8755 29.4246C17.8755 28.5249 17.2044 27.7765 16.3282 27.6279V23.5793H19.8373V29.4218C19.8373 29.5983 19.984 29.7416 20.1647 29.7416H26.9818C27.1381 30.5975 27.9002 31.2531 28.8213 31.2531C29.8538 31.2531 30.696 30.4303 30.696 29.4218C30.696 28.4134 29.8537 27.5906 28.8213 27.5906C27.9002 27.5906 27.134 28.2462 26.9818 29.1021L20.4839 29.1034V23.5791H21.746C23.0638 23.5791 24.1383 22.5295 24.1383 21.2423L24.1397 20.0082H26.8391V22.5427C25.9628 22.6953 25.2917 23.4397 25.2917 24.3395C25.2917 25.348 26.134 26.1707 27.1665 26.1707C28.1989 26.1707 29.0412 25.3479 29.0412 24.3395C29.0412 23.4398 28.3701 22.6913 27.4939 22.5427V19.6897C27.4939 19.5132 27.3471 19.3699 27.1664 19.3699H24.1438V15.9464H28.2858C28.442 16.8023 29.2042 17.4578 30.1253 17.4578C31.1577 17.4578 32 16.6351 32 15.6266C32 14.6181 31.1536 13.7952 30.1211 13.7952ZM28.9012 3.10501C28.9012 2.44551 29.45 1.91207 30.1225 1.91207C30.7977 1.91207 31.3438 2.44816 31.3438 3.10501C31.3438 3.76054 30.7949 4.29795 30.1225 4.29795C29.4473 4.30061 28.9012 3.76319 28.9012 3.10501ZM24.9222 3.52567C25.5974 3.52567 26.1435 4.06176 26.1435 4.71861C26.1435 5.37812 25.5947 5.91155 24.9222 5.91155C24.247 5.91155 23.7009 5.37547 23.7009 4.71861C23.7009 4.06308 24.2511 3.52567 24.9222 3.52567ZM14.7768 1.83112C14.7768 1.17161 15.3256 0.638173 15.9981 0.638173C16.6733 0.638173 17.2194 1.17426 17.2194 1.83112C17.2194 2.48665 16.6733 3.02273 15.9981 3.02273C15.3229 3.02273 14.7768 2.4893 14.7768 1.83112ZM3.17902 3.02273C2.50384 3.02273 1.95772 2.48665 1.95772 1.82979C1.95772 1.17426 2.50655 0.636848 3.17902 0.636848C3.8542 0.636848 4.40032 1.17294 4.40032 1.82979C4.39896 2.48665 3.85284 3.02273 3.17902 3.02273ZM3.60968 6.9093C3.60968 6.2498 4.15851 5.71636 4.83097 5.71636C5.50209 5.71636 6.05227 6.25245 6.05227 6.9093C6.05227 7.56881 5.50344 8.10225 4.83097 8.10225C4.15986 8.10225 3.60968 7.56483 3.60968 6.9093ZM1.87484 16.8192C1.19966 16.8192 0.653546 16.2831 0.653546 15.6262C0.653546 14.9707 1.20238 14.4333 1.87484 14.4333C2.55002 14.4333 3.09614 14.9694 3.09614 15.6262C3.09479 16.2818 2.54867 16.8192 1.87484 16.8192ZM3.09479 28.1477C3.09479 28.8072 2.54596 29.3406 1.87349 29.3406C1.19831 29.3406 0.65219 28.8045 0.65219 28.1477C0.65219 27.4882 1.20102 26.9547 1.87349 26.9547C2.54867 26.9521 3.09479 27.4895 3.09479 28.1477ZM7.07374 27.727C6.39856 27.727 5.85244 27.1909 5.85244 26.5341C5.85244 25.8746 6.40127 25.3411 7.07374 25.3411C7.74485 25.3411 8.29504 25.8772 8.29504 26.5341C8.29504 27.1896 7.74485 27.727 7.07374 27.727ZM17.2192 29.4216C17.2192 30.0811 16.6703 30.6145 15.9979 30.6145C15.3227 30.6145 14.7766 30.0784 14.7766 29.4216C14.7766 28.766 15.3227 28.23 15.9979 28.23C16.6731 28.23 17.2192 28.7634 17.2192 29.4216ZM28.8169 28.23C29.4921 28.23 30.0382 28.766 30.0382 29.4229C30.0382 30.0784 29.4894 30.6158 28.8169 30.6158C28.1418 30.6158 27.5956 30.0798 27.5956 29.4229C27.597 28.766 28.1431 28.23 28.8169 28.23ZM28.3863 24.3434C28.3863 25.0029 27.8375 25.5363 27.165 25.5363C26.4939 25.5363 25.9437 25.0002 25.9437 24.3434C25.9437 23.6839 26.4925 23.1504 27.165 23.1504C27.8361 23.1504 28.3863 23.6879 28.3863 24.3434ZM23.4861 21.2423C23.4861 22.1804 22.7076 22.9408 21.7472 22.9408H10.2489C9.2884 22.9408 8.50997 22.1804 8.50997 21.2423V10.0109C8.50997 9.07275 9.2884 8.31239 10.2489 8.31239H21.7461C22.7066 8.31239 23.485 9.07275 23.485 10.0109L23.4861 21.2423ZM30.121 16.8193C29.4458 16.8193 28.8997 16.2832 28.8997 15.6263C28.8997 14.9708 29.4485 14.4334 30.121 14.4334C30.7962 14.4334 31.3423 14.9695 31.3423 15.6263C31.3423 16.2819 30.7962 16.8193 30.121 16.8193ZM21.7472 9.07638H10.2489C9.72041 9.07638 9.29247 9.49439 9.29247 10.0106V21.2409C9.29247 21.7571 9.72041 22.1751 10.2489 22.1751H21.7461C22.2746 22.1751 22.7025 21.7571 22.7025 21.2409L22.7039 10.0106C22.7039 9.49439 22.2756 9.07638 21.7472 9.07638ZM22.0488 21.2419C22.0488 21.4011 21.9102 21.5378 21.7458 21.5378L10.2486 21.5365C10.0855 21.5365 9.9456 21.4011 9.9456 21.2406L9.94696 10.0103C9.94696 9.85103 10.0855 9.71435 10.2499 9.71435H21.7472C21.9102 9.71435 22.0501 9.84971 22.0501 10.0103L22.0488 21.2419ZM20.3656 14.2712C20.4104 14.1929 20.4525 14.1119 20.4878 14.023C20.693 13.4962 20.606 12.915 20.2582 12.4678C19.9417 12.0631 19.4581 11.8362 18.9541 11.8322C18.8848 11.0095 18.1756 10.3646 17.3157 10.3646C16.8769 10.3646 16.4639 10.5304 16.1542 10.833C16.0944 10.8914 16.0469 10.9524 16.0007 11.0161C15.9518 10.9511 15.9029 10.89 15.8472 10.833C15.5374 10.5304 15.1245 10.3646 14.6857 10.3646C13.8271 10.3646 13.1206 11.0135 13.0473 11.8322C12.5433 11.8362 12.0556 12.0671 11.7431 12.4678C11.3953 12.9123 11.3084 13.4935 11.5135 14.023C11.5489 14.1079 11.5869 14.1929 11.6358 14.2712C10.9715 14.7369 10.6237 15.5517 10.7731 16.3572C10.9294 17.1825 11.5828 17.8314 12.4006 18.0185C12.296 18.4166 12.3585 18.8373 12.5813 19.1942C12.8286 19.5883 13.2388 19.8471 13.7048 19.9108C13.7361 19.9148 13.7714 19.9174 13.8026 19.9214C13.8543 20.1457 13.9657 20.3526 14.1368 20.5199C14.38 20.7614 14.7033 20.8941 15.0511 20.8941C15.3948 20.8941 15.7195 20.7614 15.9627 20.5199C15.9763 20.5066 15.9871 20.4854 16.0048 20.4721C16.0184 20.4893 16.0292 20.5066 16.0469 20.5199C16.2901 20.7614 16.6134 20.8941 16.9585 20.8941C17.563 20.8941 18.0752 20.4761 18.2029 19.9187C18.2341 19.9148 18.2694 19.9121 18.3007 19.9081C18.7666 19.8471 19.1769 19.5857 19.4242 19.1916C19.647 18.8386 19.7095 18.4166 19.6049 18.0159C20.4227 17.8288 21.0789 17.1799 21.2324 16.3545C21.3777 15.5477 21.0299 14.7356 20.3656 14.2712ZM15.4939 20.0686C15.3757 20.188 15.2154 20.2517 15.0483 20.2517C14.8785 20.2517 14.7209 20.1867 14.6027 20.0686C14.5334 19.9969 14.4805 19.916 14.4533 19.8271C14.6448 19.7594 14.8255 19.6506 14.979 19.5073C15.1108 19.3878 15.1176 19.1848 14.9926 19.0561C14.8703 18.9274 14.6625 18.9207 14.5307 19.0428C14.3297 19.2259 14.0607 19.3109 13.7903 19.2737C13.5186 19.2366 13.2795 19.0866 13.1369 18.8557C12.9942 18.6275 12.963 18.3528 13.0567 18.098C13.1478 17.8432 13.3488 17.6468 13.6056 17.5579C13.7754 17.4995 13.8623 17.3164 13.8039 17.1506C13.7441 16.9847 13.5567 16.8998 13.3868 16.9568C13.1192 17.0524 12.8856 17.2116 12.709 17.4226C12.065 17.3483 11.5338 16.8692 11.4156 16.2403C11.3042 15.6564 11.5719 15.0646 12.0731 14.7487C12.2674 14.8881 12.4943 14.9903 12.7415 15.034C12.9195 15.0685 13.0893 14.9557 13.1247 14.7832C13.16 14.6094 13.0445 14.4435 12.8679 14.409C12.5269 14.344 12.2484 14.1131 12.1275 13.7946C12.0025 13.4748 12.0541 13.1218 12.2661 12.8538C12.4712 12.5924 12.7986 12.4491 13.1287 12.4703C13.2048 12.6946 13.3298 12.8989 13.501 13.0754C13.626 13.2015 13.8311 13.2081 13.9629 13.086C14.0919 12.9639 14.0987 12.7636 13.9737 12.6349C13.7958 12.4544 13.6993 12.2169 13.6993 11.966C13.6993 11.4326 14.1449 10.9973 14.691 10.9973C14.956 10.9973 15.2019 11.0995 15.3907 11.2787C15.5781 11.4618 15.6787 11.7033 15.6787 11.962V12.6999C15.6787 12.9241 15.6094 13.159 15.4912 13.3209C15.3418 13.5252 15.1258 13.6261 14.831 13.6261C14.6503 13.6261 14.5036 13.7694 14.5036 13.9459C14.5036 14.1224 14.6503 14.2657 14.831 14.2657C15.2032 14.2657 15.4776 14.1608 15.6828 14.0215V17.4835C15.3798 17.5339 15.1543 17.6599 15.0116 17.7727C14.869 17.8815 14.8486 18.0819 14.96 18.2212C15.0266 18.2995 15.1203 18.3433 15.2168 18.3433C15.2861 18.3433 15.3594 18.3194 15.4178 18.2756C15.498 18.2146 15.5849 18.1708 15.6828 18.1403V19.6451C15.6746 19.8003 15.608 19.9531 15.4939 20.0686ZM20.5857 16.2401C20.4675 16.8691 19.9323 17.3481 19.2924 17.4224C19.1144 17.2114 18.8821 17.0522 18.6145 16.9567C18.4447 16.8983 18.2559 16.9832 18.1974 17.1504C18.1377 17.3163 18.2246 17.5007 18.3958 17.5578C18.6525 17.6493 18.855 17.8471 18.9446 18.0978C19.0356 18.3486 19.0071 18.6273 18.8645 18.8556C18.7218 19.0838 18.4813 19.2364 18.211 19.2736C17.9393 19.3107 17.669 19.2258 17.4706 19.0427C17.3389 18.9232 17.1337 18.9312 17.0087 19.0559C16.8865 19.1847 16.8946 19.385 17.0223 19.5071C17.1758 19.6504 17.3565 19.7552 17.5481 19.8269C17.4679 20.075 17.2315 20.2515 16.9531 20.2515C16.786 20.2515 16.6256 20.1865 16.5075 20.0684C16.3893 19.953 16.3268 19.803 16.3295 19.6438V19.6398V19.6358V16.9421C16.6012 17.027 16.7262 17.2075 16.7371 17.2207C16.7996 17.3189 16.9042 17.3733 17.0156 17.3733C17.0713 17.3733 17.1297 17.3601 17.1827 17.3295C17.3389 17.238 17.3878 17.0442 17.2941 16.8916C17.2805 16.8677 16.9843 16.3993 16.3309 16.2865L16.3282 11.9672C16.3282 11.7084 16.4328 11.4642 16.6162 11.2838C16.8036 11.1007 17.0509 11.0025 17.3158 11.0025C17.8619 11.0025 18.3075 11.4377 18.3075 11.9712C18.3075 12.222 18.2097 12.4569 18.0331 12.64C17.9081 12.7661 17.9149 12.9691 18.044 13.0912C18.173 13.2132 18.3809 13.2066 18.5059 13.0805C18.6757 12.9067 18.802 12.6997 18.8781 12.4755C19.2082 12.4556 19.5356 12.5949 19.7408 12.859C19.9527 13.127 20.0057 13.48 19.8793 13.7998C19.7543 14.1196 19.4799 14.3465 19.1389 14.4142C18.961 14.4487 18.8469 14.6145 18.8822 14.7884C18.9175 14.9622 19.0873 15.0737 19.2653 15.0392C19.5126 14.9914 19.7381 14.8932 19.9337 14.7539C20.4282 15.0657 20.693 15.6522 20.5857 16.2401ZM14.8543 16.8863C14.7877 16.9606 14.6981 17.0018 14.6043 17.0018C14.531 17.0018 14.4576 16.9779 14.3992 16.9301C14.2294 16.7908 14.0134 16.532 13.9129 16.2069C13.7566 16.2374 13.5719 16.248 13.3844 16.2029C13.2105 16.1618 13.1032 15.9893 13.148 15.8155C13.1901 15.6456 13.3668 15.5408 13.5447 15.5846C13.6697 15.6151 13.8015 15.5846 13.8966 15.554C13.9278 15.4253 13.9835 15.2886 14.0664 15.1533C14.1601 15.0007 14.3585 14.9529 14.5147 15.0418C14.6709 15.1334 14.7198 15.3271 14.6288 15.4797C14.3123 15.9999 14.7674 16.4006 14.8231 16.4444C14.9481 16.5493 14.9684 16.7496 14.8543 16.8863ZM18.5752 15.7783C18.5861 15.9548 18.4461 16.1047 18.2655 16.114H18.2478C18.0739 16.114 17.9313 15.9813 17.9204 15.8115C17.9095 15.6005 17.7288 15.4784 17.5971 15.4134C17.483 15.485 17.343 15.5394 17.1868 15.5792C17.0129 15.623 16.8349 15.5182 16.7901 15.3483C16.7453 15.1785 16.8526 15.0047 17.0265 14.9609C17.6243 14.8109 17.593 14.2138 17.5862 14.1461C17.5726 13.9723 17.7044 13.817 17.8824 13.7998C18.0603 13.7826 18.2193 13.9113 18.2369 14.0851C18.2573 14.2987 18.2233 14.6318 18.0562 14.9344C18.2967 15.0923 18.5508 15.3537 18.5752 15.7783Z" fill="white"/>
</svg>
