<svg width="33" height="30" viewBox="0 0 33 30" fill="none" xmlns="http://www.w3.org/2000/svg">
<path id="5" d="M14.9516 4.51239L16.8658 3.44453C17.1195 3.30269 17.4452 3.38565 17.5908 3.63054L26.4313 18.4158C26.5769 18.6607 26.4895 18.9739 26.2359 19.1144L24.3161 20.1836C23.6633 20.5462 22.9189 20.6185 22.2439 20.4445C21.5911 20.2759 21.0006 19.8758 20.6222 19.2817L12.2571 22.4518L17.6589 27.17C17.8765 27.3587 17.8931 27.6825 17.6963 27.8926C17.6547 27.9381 17.6062 27.9742 17.5535 28.001L15.3413 29.2348C15.1376 29.3472 14.8881 29.3151 14.7217 29.1706L8.61169 23.834L6.68224 24.5646C5.62048 25.1414 4.41735 25.2551 3.32511 24.9741C2.21761 24.6877 1.221 23.9919 0.601415 22.9562L0.584782 22.9241C-0.0195501 21.895 -0.140161 20.7281 0.1523 19.6696C0.444768 18.6179 1.15029 17.6677 2.19679 17.0682L13.9066 8.05557C13.5642 7.44135 13.5005 6.74819 13.6751 6.11927C13.8567 5.46626 14.2961 4.87745 14.9489 4.51347L14.9516 4.51239ZM26.0696 13.2479C25.7771 13.2533 25.5345 13.0285 25.529 12.7461C25.5235 12.4638 25.7563 12.2296 26.0488 12.2243L32.4593 12.0944C32.7518 12.0891 32.9944 12.3139 32.9999 12.5962C33.0054 12.8786 32.7726 13.1128 32.4801 13.1181L26.0696 13.2479ZM22.9522 7.04809C22.8011 7.28896 22.4754 7.36658 22.2245 7.22072C21.975 7.07486 21.8946 6.76037 22.0457 6.51818L25.3668 1.22308C25.5179 0.982208 25.8436 0.904592 26.0945 1.05045C26.344 1.19631 26.4244 1.5108 26.2733 1.75299L22.9522 7.04809ZM24.3494 9.87429C24.0957 10.0161 23.77 9.93317 23.6244 9.68829C23.4775 9.44341 23.5635 9.12894 23.8171 8.98842L28.6838 6.27595C28.9374 6.13411 29.2632 6.21707 29.4087 6.46196C29.5556 6.70684 29.4697 7.0213 29.216 7.16183L24.3494 9.87429ZM11.1564 22.8693L9.71481 23.4153L15.1471 28.1606L16.4084 27.4581L11.1564 22.8693ZM5.72017 23.8743L2.33668 18.2178C1.76145 18.6674 1.3664 19.2736 1.18206 19.9346C0.957513 20.7429 1.049 21.6341 1.5078 22.4183L1.52443 22.4424C1.99708 23.2332 2.75669 23.7631 3.60221 23.9812C4.28695 24.1579 5.02848 24.1312 5.72017 23.8743ZM20.0703 18.3891C18.1825 15.3448 16.1866 12.0741 14.4262 8.96977L3.20008 17.6104L6.69723 23.4567L20.0703 18.3891ZM16.9405 4.58728L15.4851 5.39821C15.0859 5.61901 14.817 5.9803 14.7047 6.3831C14.5966 6.7765 14.6382 7.21009 14.8544 7.59011L21.2998 18.3663L21.3247 18.4065L21.3275 18.4132L21.5008 18.7035C21.7323 19.0889 22.1065 19.3499 22.5209 19.4569C22.934 19.564 23.3873 19.5212 23.7837 19.3044L25.2502 18.4868L16.9405 4.59145L16.9405 4.58728Z" fill="white"/>
</svg>
