<svg width="130" height="65" viewBox="0 0 130 65" fill="none" xmlns="http://www.w3.org/2000/svg">
<g id="Group 511">
<g id="Group 495">
<g id="XMLID_933_">
<path id="XMLID_956_" d="M37.8693 14.9816L31.4674 40.9123H22.5357L18.9476 25.0416L15.2819 40.9123H6.35027L0 14.9816H7.84749L10.8936 32.6954L14.998 14.9816H22.9746L26.9757 32.5674L30.0218 14.9816H37.8693Z" fill="white"/>
<path id="XMLID_958_" d="M41.5347 17.311C40.7603 16.6198 40.373 15.7239 40.373 14.6744C40.373 13.5993 40.7603 12.7034 41.5347 11.9866C42.3091 11.2699 43.3417 10.9115 44.6324 10.9115C45.8973 10.9115 46.904 11.2699 47.6784 11.9866C48.4529 12.7034 48.8401 13.5993 48.8401 14.6744C48.8401 15.7239 48.4529 16.5942 47.6784 17.311C46.904 18.0021 45.8715 18.3605 44.6324 18.3605C43.3417 18.3605 42.3091 18.0021 41.5347 17.311ZM48.2205 20.2548V40.8867H40.9668V20.2548H48.2205Z" fill="white"/>
<path id="XMLID_961_" d="M59.27 34.8968H68.1242V40.8867H51.2676V35.1784L59.5281 26.2447H51.345V20.2548H67.8402V25.9631L59.27 34.8968Z" fill="white"/>
<path id="XMLID_963_" d="M90.9431 32.0298H77.1841C77.2616 33.1561 77.5713 34.0009 78.1393 34.5384C78.7072 35.076 79.4041 35.3575 80.2818 35.3575C81.4951 35.3575 82.347 34.82 82.8891 33.7449H90.6333C90.3235 35.1784 89.6782 36.4327 88.7489 37.559C87.8196 38.6853 86.6579 39.5556 85.2381 40.1956C83.8184 40.8355 82.2695 41.1427 80.5658 41.1427C78.5265 41.1427 76.6937 40.7075 75.0932 39.8628C73.4927 38.9925 72.2536 37.7893 71.3501 36.1767C70.4467 34.5896 70.0078 32.721 70.0078 30.5451C70.0078 28.3949 70.4467 26.5263 71.3501 24.9392C72.2278 23.3521 73.4927 22.149 75.0674 21.2787C76.6679 20.4083 78.5007 19.9988 80.5658 19.9988C82.6051 19.9988 84.4379 20.4083 86.0126 21.2531C87.5872 22.0978 88.8263 23.2753 89.7298 24.8368C90.6075 26.3983 91.0721 28.2157 91.0721 30.3403C91.0463 30.9035 90.9947 31.4667 90.9431 32.0298ZM83.6377 28.5229C83.6377 27.6526 83.3537 26.9358 82.76 26.4495C82.1663 25.9375 81.4176 25.7071 80.54 25.7071C79.6623 25.7071 78.9137 25.9375 78.3458 26.4239C77.7779 26.9102 77.4165 27.6014 77.2358 28.5485H83.6377V28.5229Z" fill="white"/>
</g>
<g id="XMLID_204_">
<path id="XMLID_227_" d="M6.04098 63.6689C4.54376 62.8497 3.35631 61.6722 2.47863 60.2132C1.60095 58.7285 1.16211 57.0646 1.16211 55.2216C1.16211 53.3529 1.60095 51.689 2.47863 50.23C3.35631 48.7453 4.54376 47.619 6.04098 46.7742C7.53819 45.9551 9.1903 45.5455 10.9715 45.5455C12.7785 45.5455 14.4306 45.9551 15.902 46.7742C17.3992 47.5934 18.5608 48.7453 19.4385 50.23C20.3162 51.7146 20.7292 53.3785 20.7292 55.2216C20.7292 57.0902 20.2904 58.7541 19.4385 60.2132C18.5608 61.6978 17.3992 62.8497 15.902 63.6689C14.4048 64.488 12.7526 64.9232 10.9715 64.9232C9.16448 64.9232 7.53819 64.5136 6.04098 63.6689ZM14.1724 58.7285C14.9468 57.8581 15.3599 56.6806 15.3599 55.2216C15.3599 53.7113 14.9727 52.5338 14.1724 51.6634C13.398 50.7931 12.3138 50.3579 10.9715 50.3579C9.60332 50.3579 8.51913 50.7931 7.74471 51.6634C6.97028 52.5338 6.58307 53.7113 6.58307 55.2216C6.58307 56.7062 6.97028 57.8837 7.74471 58.7541C8.51913 59.6244 9.60332 60.0596 10.9715 60.0596C12.3138 60.034 13.3722 59.5988 14.1724 58.7285Z" fill="#2CB78C"/>
<path id="XMLID_559_" d="M30.1508 50.102C30.8994 49.6925 31.8029 49.4877 32.8354 49.4877C34.0487 49.4877 35.1329 49.7948 36.1138 50.4348C37.0948 51.0491 37.8692 51.9451 38.4371 53.1226C39.005 54.2745 39.289 55.6312 39.289 57.1927C39.289 58.7541 39.005 60.1108 38.4371 61.2883C37.8692 62.4658 37.0948 63.3618 36.1138 63.9761C35.1329 64.5905 34.0229 64.9232 32.8354 64.9232C31.8029 64.9232 30.9252 64.7184 30.1508 64.3089C29.4022 63.8993 28.8084 63.3362 28.3954 62.645V64.744H23.1035V44.9056H28.3954V51.7915C28.8084 51.0747 29.4022 50.5116 30.1508 50.102ZM33.1194 54.9144C32.5773 54.3769 31.9319 54.0953 31.1575 54.0953C30.3831 54.0953 29.7377 54.3769 29.1956 54.9144C28.6536 55.4776 28.3954 56.2199 28.3954 57.1927C28.3954 58.1654 28.6536 58.9333 29.1956 59.4965C29.7377 60.0596 30.3831 60.3156 31.1575 60.3156C31.9319 60.3156 32.5773 60.034 33.1194 59.4709C33.6615 58.9077 33.9196 58.1398 33.9196 57.167C33.9196 56.2199 33.6615 55.452 33.1194 54.9144Z" fill="#2CB78C"/>
<path id="XMLID_581_" d="M44.2967 64.2321C43.2125 63.7713 42.3865 63.157 41.7669 62.3634C41.1474 61.5699 40.786 60.674 40.7344 59.6756H45.8714C45.9488 60.162 46.1812 60.546 46.5426 60.802C46.9298 61.0579 47.3944 61.2115 47.9365 61.2115C48.3754 61.2115 48.7109 61.1347 48.9691 60.9555C49.2272 60.7764 49.3563 60.546 49.3563 60.2644C49.3563 59.8804 49.1498 59.6245 48.7367 59.4453C48.3237 59.2661 47.6267 59.0613 46.6716 58.8565C45.5874 58.6517 44.6839 58.3957 43.9611 58.1398C43.2383 57.8838 42.6188 57.423 42.0767 56.8343C41.5346 56.2199 41.2765 55.4008 41.2765 54.3769C41.2765 53.481 41.5088 52.6618 41.9993 51.9451C42.4897 51.2283 43.2125 50.6396 44.1418 50.2044C45.097 49.7692 46.2328 49.5645 47.5751 49.5645C49.5628 49.5645 51.1116 50.0508 52.2475 51.0235C53.3833 51.9963 54.0286 53.2506 54.2093 54.8376H49.4337C49.3305 54.3513 49.124 53.9929 48.7884 53.7369C48.4528 53.481 48.014 53.353 47.446 53.353C47.0072 53.353 46.6716 53.4297 46.4651 53.5833C46.2328 53.7369 46.1295 53.9673 46.1295 54.2489C46.1295 54.6073 46.336 54.8888 46.7491 55.068C47.1621 55.2472 47.8333 55.452 48.7626 55.6568C49.8726 55.8872 50.7761 56.1431 51.4989 56.4247C52.2217 56.7063 52.867 57.167 53.4091 57.807C53.9512 58.4469 54.2352 59.3173 54.2352 60.3924C54.2352 61.2627 53.977 62.0563 53.4607 62.7474C52.9445 63.4385 52.2217 64.0017 51.2665 64.3857C50.3114 64.7952 49.2014 65 47.9365 65C46.5942 64.9232 45.3551 64.6929 44.2967 64.2321Z" fill="#2CB78C"/>
<path id="XMLID_583_" d="M71.2726 58.2678H61.2309C61.2825 59.0869 61.5149 59.7013 61.9279 60.1108C62.3409 60.5204 62.8572 60.7252 63.4768 60.7252C64.3544 60.7252 64.9998 60.3412 65.3612 59.5477H71.0145C70.7821 60.5972 70.3175 61.5187 69.6463 62.3123C68.9752 63.1314 68.1233 63.7713 67.0907 64.2321C66.0582 64.6929 64.9223 64.9232 63.6833 64.9232C62.186 64.9232 60.8695 64.6161 59.6821 63.9761C58.5204 63.3618 57.617 62.4658 56.9458 61.2883C56.2746 60.1364 55.9648 58.7541 55.9648 57.1927C55.9648 55.6312 56.3004 54.2489 56.9458 53.097C57.5911 51.9451 58.4946 51.0491 59.6563 50.4348C60.8179 49.8204 62.1602 49.4877 63.6833 49.4877C65.1805 49.4877 66.497 49.7949 67.6586 50.4092C68.8203 51.0236 69.7238 51.8939 70.3691 53.0202C71.0145 54.1465 71.3501 55.5032 71.3501 57.0391C71.3501 57.4486 71.3242 57.8582 71.2726 58.2678ZM65.9291 55.7336C65.9291 55.0936 65.7226 54.5817 65.2837 54.2233C64.8449 53.8649 64.3028 53.6857 63.6575 53.6857C63.0121 53.6857 62.47 53.8649 62.057 54.1977C61.6439 54.5561 61.36 55.068 61.2567 55.7336H65.9291Z" fill="#2CB78C"/>
<path id="XMLID_848_" d="M80.9798 50.3068C81.8317 49.7948 82.7352 49.5645 83.7161 49.5645V55.1704H82.2189C81.0572 55.1704 80.2054 55.4008 79.6375 55.8359C79.0696 56.2711 78.8114 57.0647 78.8114 58.1654V64.744H73.5195V49.6924H78.8114V52.3546C79.4051 51.4843 80.1279 50.8188 80.9798 50.3068Z" fill="#2CB78C"/>
<path id="XMLID_930_" d="M92.8789 59.778L95.7184 49.6924H101.372L96.1315 64.744H89.523L84.3086 49.6924H89.9619L92.8789 59.778Z" fill="#2CB78C"/>
<path id="XMLID_935_" d="M117.558 58.2678H107.516C107.568 59.0869 107.8 59.7013 108.213 60.1108C108.626 60.5204 109.142 60.7252 109.762 60.7252C110.64 60.7252 111.285 60.3412 111.646 59.5477H117.3C117.067 60.5972 116.603 61.5187 115.931 62.3123C115.26 63.1314 114.408 63.7713 113.376 64.2321C112.343 64.6929 111.207 64.9232 109.968 64.9232C108.471 64.9232 107.155 64.6161 105.967 63.9761C104.806 63.3618 103.902 62.4658 103.231 61.2883C102.56 60.1364 102.25 58.7541 102.25 57.1927C102.25 55.6312 102.586 54.2489 103.231 53.097C103.876 51.9451 104.78 51.0491 105.941 50.4348C107.103 49.8204 108.445 49.4877 109.968 49.4877C111.466 49.4877 112.782 49.7949 113.944 50.4092C115.105 51.0236 116.009 51.8939 116.654 53.0202C117.3 54.1465 117.635 55.5032 117.635 57.0391C117.635 57.4486 117.609 57.8582 117.558 58.2678ZM112.24 55.7336C112.24 55.0936 112.034 54.5817 111.595 54.2233C111.156 53.8649 110.614 53.6857 109.968 53.6857C109.323 53.6857 108.781 53.8649 108.368 54.1977C107.955 54.5561 107.671 55.068 107.568 55.7336H112.24Z" fill="#2CB78C"/>
<path id="XMLID_940_" d="M127.265 50.3068C128.117 49.7948 129.02 49.5645 130.001 49.5645V55.1704H128.504C127.342 55.1704 126.491 55.4008 125.923 55.8359C125.355 56.2711 125.097 57.0647 125.097 58.1654V64.744H119.805V49.6924H125.097V52.3546C125.69 51.4843 126.413 50.8188 127.265 50.3068Z" fill="#2CB78C"/>
</g>
<path id="XMLID_932_" d="M44.6065 18.898C47.0729 18.898 49.0723 16.9153 49.0723 14.4696C49.0723 12.0238 47.0729 10.0411 44.6065 10.0411C42.14 10.0411 40.1406 12.0238 40.1406 14.4696C40.1406 16.9153 42.14 18.898 44.6065 18.898Z" fill="#2CB78C"/>
<path id="XMLID_880_" d="M100.34 38.2758C100.237 38.4549 100.134 38.6341 100.056 38.8133C99.9012 39.2229 100.211 39.6836 100.65 39.6836H115.493C115.932 39.6836 116.242 39.2485 116.087 38.8133C116.009 38.6341 115.932 38.4549 115.803 38.2758H100.34Z" fill="#2D3453"/>
<path id="XMLID_854_" d="M101.992 36.8167C101.269 37.2518 100.701 37.7382 100.34 38.3013H115.777C115.415 37.7382 114.847 37.2518 114.125 36.8167H101.992Z" fill="#2CB78C"/>
<path id="XMLID_810_" d="M121.017 21.2275C121.017 14.1369 115.209 8.37732 108.058 8.37732C100.908 8.37732 95.0996 14.1369 95.0996 21.2275C95.0996 27.1662 99.1524 32.1322 104.651 33.6169L104.186 35.8695C103.36 36.0999 102.612 36.4327 101.966 36.791H114.099C113.479 36.4327 112.731 36.0999 111.879 35.8695L111.414 33.6169C116.964 32.1578 121.017 27.1662 121.017 21.2275ZM108.084 32.3626C101.889 32.3626 96.855 27.371 96.855 21.2275C96.855 15.084 101.889 10.0924 108.084 10.0924C114.279 10.0924 119.313 15.084 119.313 21.2275C119.313 27.371 114.279 32.3626 108.084 32.3626Z" fill="#2D3453"/>
<path id="XMLID_728_" d="M96.8535 21.2275C96.8535 27.371 101.887 32.3626 108.083 32.3626C114.278 32.3626 119.312 27.371 119.312 21.2275C119.312 15.084 114.278 10.0924 108.083 10.0924C101.861 10.0924 96.8535 15.084 96.8535 21.2275ZM118.382 21.2275C118.382 26.8847 113.762 31.4411 108.083 31.4411C102.378 31.4411 97.7828 26.8591 97.7828 21.2275C97.7828 15.5704 102.404 11.0139 108.083 11.0139C113.762 11.0139 118.382 15.596 118.382 21.2275Z" fill="#AAD3C7"/>
<path id="XMLID_590_" d="M97.7578 21.2275C97.7578 26.8846 102.379 31.4411 108.058 31.4411C113.763 31.4411 118.357 26.859 118.357 21.2275C118.357 15.5703 113.737 11.0139 108.058 11.0139C102.379 11.0139 97.7578 15.5959 97.7578 21.2275ZM114.537 21.2275C114.537 24.76 111.646 27.627 108.083 27.627C104.521 27.627 101.63 24.76 101.63 21.2275C101.63 17.695 104.521 14.828 108.083 14.828C111.646 14.828 114.537 17.695 114.537 21.2275Z" fill="#2CB78C"/>
<path id="XMLID_444_" d="M101.604 21.2275C101.604 24.76 104.495 27.627 108.057 27.627C111.619 27.627 114.511 24.76 114.511 21.2275C114.511 17.695 111.619 14.828 108.057 14.828C104.495 14.828 101.604 17.695 101.604 21.2275ZM110.432 21.2275C110.432 22.5074 109.374 23.5569 108.083 23.5569C106.792 23.5569 105.734 22.5074 105.734 21.2275C105.734 19.9476 106.792 18.8981 108.083 18.8981C109.374 18.8981 110.432 19.9476 110.432 21.2275ZM109.012 16.0311C109.064 16.1079 109.064 16.1847 109.038 16.2615L108.728 17.183C108.702 17.2854 108.599 17.3366 108.496 17.3622C106.87 17.4646 105.347 18.2325 104.34 19.5124C104.262 19.5892 104.159 19.6404 104.056 19.5892L103.152 19.282C103.023 19.2308 102.946 19.0773 102.997 18.9493L103.023 18.8725C104.366 17.0294 106.508 15.9287 108.806 15.9031C108.883 15.9031 108.961 15.9543 109.012 16.0311Z" fill="#2D3453"/>
<path id="XMLID_443_" d="M103.024 18.8725L102.999 18.9493C102.947 19.0773 103.024 19.2308 103.153 19.282L104.057 19.5892C104.16 19.6148 104.263 19.5892 104.341 19.5124C105.348 18.2581 106.871 17.4646 108.497 17.3622C108.6 17.3622 108.704 17.2854 108.729 17.183L109.039 16.2615C109.065 16.1847 109.065 16.0823 109.013 16.0311C108.962 15.9543 108.884 15.9287 108.807 15.9287C106.509 15.9287 104.367 17.0294 103.024 18.8725Z" fill="white"/>
<path id="XMLID_441_" d="M108.083 23.5569C109.381 23.5569 110.433 22.514 110.433 21.2275C110.433 19.941 109.381 18.8981 108.083 18.8981C106.786 18.8981 105.734 19.941 105.734 21.2275C105.734 22.514 106.786 23.5569 108.083 23.5569Z" fill="white"/>
<path id="XMLID_434_" d="M128.166 13.2409C127.702 6.25269 121.48 1.46587 115.13 1.87543C115.104 1.26108 115.079 0.672337 115.053 0.057986C122.461 -0.658756 129.689 5.35676 129.999 13.2409C129.38 13.2409 128.786 13.2409 128.166 13.2409Z" fill="#E7E7E7"/>
<path id="XMLID_431_" d="M115.286 5.35677C115.26 4.74242 115.26 4.12806 115.234 3.53931C120.475 2.87377 126.309 7.35341 126.489 13.4457C125.87 13.4457 125.276 13.4457 124.657 13.4457C124.269 8.32613 119.803 5.07519 115.286 5.35677Z" fill="#E7E7E7"/>
<path id="XMLID_421_" d="M122.978 13.6505C122.384 13.6761 121.79 13.6761 121.196 13.7017C120.938 10.8348 118.563 8.68453 115.595 8.76132C115.543 8.17257 115.492 7.58381 115.414 6.99506C119.183 6.4575 123.081 9.93882 122.978 13.6505Z" fill="#E7E7E7"/>
</g>
</g>
</svg>
