<svg width="39" height="30" viewBox="0 0 39 30" fill="none" xmlns="http://www.w3.org/2000/svg">
<g id="1">
<path id="Vector" d="M19.0104 7.9967C14.0809 7.9967 10.0684 12.0554 10.0684 17.0423C10.0684 22.0293 14.0811 26.088 19.0104 26.088C23.9397 26.088 27.9525 22.0293 27.9525 17.0423C27.9525 12.0554 23.9397 7.9967 19.0104 7.9967ZM19.0104 24.762C14.8008 24.762 11.3789 21.3002 11.3789 17.0423C11.3789 12.7845 14.801 9.32265 19.0104 9.32265C23.2198 9.32265 26.6419 12.7845 26.6419 17.0423C26.6419 21.3002 23.2198 24.762 19.0104 24.762Z" fill="white"/>
<path id="Vector_2" d="M19.0122 10.6959C15.5563 10.6959 12.7383 13.541 12.7383 17.0425C12.7383 20.5441 15.5493 23.3892 19.0122 23.3892C22.4752 23.3892 25.2862 20.5441 25.2862 17.0425C25.2862 13.541 22.4684 10.6959 19.0122 10.6959ZM19.0122 22.0628C16.2759 22.0628 14.0489 19.808 14.0489 17.0425C14.0489 14.2771 16.2759 12.0223 19.0122 12.0223C21.7486 12.0223 23.9756 14.2771 23.9756 17.0425C23.9756 19.808 21.7486 22.0628 19.0122 22.0628Z" fill="white"/>
<path id="Vector_3" d="M19.0107 13.1163C16.8719 13.1163 15.127 14.8804 15.127 17.0424C15.127 17.4071 15.4189 17.7056 15.7855 17.7056C16.1522 17.7056 16.4441 17.4071 16.4441 17.0424C16.4441 15.6099 17.5984 14.4427 19.0175 14.4427C19.3773 14.4427 19.6761 14.1443 19.6761 13.7795C19.6761 13.4148 19.3705 13.1163 19.0107 13.1163Z" fill="white"/>
<path id="Vector_4" d="M17.3676 5.092H20.6538C21.0137 5.092 21.3124 4.79356 21.3124 4.42881C21.3124 4.06406 21.0205 3.76562 20.6538 3.76562H17.3676C17.0077 3.76562 16.709 4.06406 16.709 4.42881C16.709 4.79356 17.0009 5.092 17.3676 5.092Z" fill="white"/>
<path id="Vector_5" d="M34.295 5.1382H24.1306L23.5059 2.48546C23.2954 1.58353 22.5078 0.953491 21.5912 0.953491H16.431C15.5144 0.953491 14.7268 1.58353 14.5163 2.48546L13.8917 5.1382H9.45802V3.34758C9.45802 2.98282 9.16606 2.68439 8.79943 2.68439H3.93123C3.57138 2.68439 3.27264 2.98282 3.27264 3.34758V5.17135C1.4326 5.3902 0 6.98183 0 8.90509V26.2141C0 28.2965 1.6703 29.9876 3.72756 29.9876H34.2882C36.3455 29.9876 38.0157 28.2965 38.0157 26.2141V8.90509C38.0225 6.82933 36.3523 5.1382 34.295 5.1382ZM8.14761 4.01081V5.1382H4.58978V4.01081H8.14761ZM36.7119 26.2208C36.7119 27.5671 35.6256 28.668 34.2948 28.668H3.72721C2.39642 28.668 1.31006 27.567 1.31006 26.2208V8.905C1.31006 7.55873 2.39642 6.45786 3.72721 6.45786H14.4074C14.7198 6.45786 14.9642 6.23901 15.0321 5.94722H15.0457L15.7926 2.78384C15.8605 2.48541 16.1253 2.2732 16.4308 2.2732H21.598C21.9035 2.2732 22.1615 2.48542 22.2362 2.78384L22.9831 5.94722H22.9967C23.0646 6.23902 23.3158 6.45786 23.6214 6.45786H34.3016C35.6324 6.45786 36.7188 7.55877 36.7188 8.905V26.2208H36.7119Z" fill="white"/>
</g>
</svg>
