<svg width="32" height="32" viewBox="0 0 32 32" fill="none" xmlns="http://www.w3.org/2000/svg">
<path id="4" d="M30.0382 0.976841H1.96195C0.88042 0.976841 0 1.85164 0 2.92523V21.7899C0 22.8661 0.88042 23.7382 1.95788 23.7382H12.1141V27.7012H11.1712C10.0896 27.7012 9.21328 28.5773 9.21328 29.6496V30.2797C9.21328 30.8165 9.65214 31.2559 10.1943 31.2559H21.8044C22.3438 31.2559 22.7854 30.8192 22.7854 30.2797L22.7867 29.6509C22.7867 28.5746 21.9063 27.7025 20.8288 27.7025H19.8859V23.7382H30.0421C31.1237 23.7382 32 22.8621 32 21.7898V2.92519C32 1.85161 31.1198 0.976841 30.0382 0.976841ZM1.96195 1.6272H30.042C30.7622 1.6272 31.3505 2.20861 31.3505 2.92928V19.644H0.653324V2.92512C0.653324 2.20851 1.24185 1.6272 1.96195 1.6272ZM22.1318 29.651V30.2811C22.1318 30.4609 21.985 30.607 21.8043 30.607L10.1942 30.6056C10.0135 30.6056 9.86674 30.4596 9.86674 30.2798L9.8681 29.651C9.8681 28.9344 10.4523 28.349 11.1765 28.349H20.8287C21.5475 28.353 22.1318 28.9344 22.1318 29.651ZM19.2309 27.7013H12.769V23.7383H19.2309V27.7013ZM30.0379 23.0879H1.96168C1.24157 23.0879 0.653254 22.5065 0.653254 21.7859V20.2904H31.3448V21.7859C31.3462 22.5065 30.758 23.0879 30.0379 23.0879ZM3.52968 11.8723L4.21855 11.9967C4.32589 12.3807 4.4835 12.7552 4.6805 13.1081L4.28106 13.6828C4.10035 13.9424 4.1316 14.2926 4.35714 14.513L5.20904 15.3607C5.43187 15.5825 5.7824 15.6136 6.04327 15.4365L6.62073 15.039C6.97263 15.2364 7.34762 15.3918 7.73757 15.4987L7.86258 16.1842C7.91828 16.4952 8.19002 16.7169 8.50661 16.7169H9.71041C10.027 16.7169 10.2987 16.4925 10.3544 16.1842L10.4794 15.4987C10.8653 15.3918 11.2417 15.235 11.5963 15.039L12.1737 15.4378C12.4346 15.6176 12.7865 15.5865 13.008 15.3621L13.8599 14.5143C14.0827 14.2926 14.114 13.9438 13.936 13.6841L13.5365 13.1095C13.7349 12.7593 13.8911 12.3861 13.9985 11.9981L14.6873 11.8737C14.9998 11.8182 15.2227 11.5478 15.2227 11.2328V10.0348C15.2227 9.71976 14.9971 9.44934 14.6873 9.39389L13.9985 9.2695C13.8911 8.88144 13.7335 8.51097 13.5365 8.15808L13.936 7.58341C14.1167 7.32381 14.0854 6.97362 13.8599 6.75323L13.008 5.90547C12.7851 5.68372 12.4346 5.65262 12.1737 5.82975L11.5963 6.22726C11.2444 6.02985 10.8694 5.87437 10.4794 5.76755L10.3544 5.08202C10.2987 4.77103 10.027 4.54927 9.71041 4.54927H8.50661C8.19003 4.54927 7.9183 4.77373 7.86258 5.08202L7.73757 5.76755C7.35169 5.87436 6.97534 6.03121 6.62073 6.22726L6.04327 5.82975C5.7824 5.64992 5.4305 5.68102 5.20904 5.90547L4.35714 6.75323C4.13432 6.97498 4.10307 7.32381 4.28106 7.58341L4.6805 8.15808C4.48213 8.50827 4.32589 8.88144 4.21855 9.2695L3.52968 9.39389C3.21718 9.44933 2.99434 9.71975 2.99434 10.0348V11.2328C2.99434 11.5478 3.22124 11.8169 3.52968 11.8723ZM3.64789 10.0348L4.33676 9.91041C4.58404 9.86579 4.78239 9.68866 4.84765 9.44665C4.9414 9.11132 5.07727 8.78545 5.2512 8.48123C5.3762 8.26354 5.36261 7.99719 5.21995 7.793L4.8205 7.21834L5.6724 6.37057L6.24986 6.76808C6.4591 6.91005 6.7227 6.92357 6.94145 6.79918C7.24716 6.62611 7.5746 6.4909 7.91157 6.39759C8.15478 6.32863 8.33276 6.13392 8.37759 5.88918L8.50259 5.20365H9.70913L9.83413 5.88918C9.87897 6.13526 10.057 6.33265 10.3002 6.39759C10.6371 6.49088 10.9646 6.62609 11.2703 6.79918C11.489 6.92357 11.7567 6.91005 11.9619 6.76808L12.5393 6.37057L13.3912 7.21834L12.9918 7.793C12.8491 8.00122 12.8355 8.26354 12.9605 8.48123C13.1344 8.78545 13.2703 9.11131 13.3641 9.44665C13.4334 9.68868 13.629 9.86579 13.875 9.91041L14.5638 10.0348V11.2355L13.875 11.3599C13.6277 11.4045 13.4293 11.5816 13.3641 11.8236C13.2703 12.159 13.1345 12.4848 12.9605 12.7891C12.8355 13.0068 12.8491 13.2731 12.9918 13.4773L13.3912 14.052L12.5393 14.8997L11.9619 14.5022C11.7526 14.3602 11.489 14.3467 11.2703 14.4711C10.9646 14.6442 10.6371 14.7794 10.3002 14.8727C10.0569 14.9417 9.87897 15.1364 9.83413 15.3811L9.70913 16.0666H8.50259L8.37759 15.3811C8.33275 15.135 8.15476 14.9376 7.91157 14.8727C7.57461 14.7794 7.24715 14.6442 6.94145 14.4711C6.8409 14.4157 6.72949 14.3886 6.62079 14.3886C6.49172 14.3886 6.35992 14.4265 6.24851 14.5063L5.67105 14.9038L4.81915 14.056L5.2186 13.4813C5.36126 13.2731 5.37485 13.0108 5.24985 12.7931C5.07593 12.4889 4.94006 12.163 4.8463 11.8277C4.777 11.5857 4.58135 11.4086 4.33134 11.3639L3.64247 11.2395L3.64789 10.0348ZM9.10982 13.572C10.7375 13.572 12.0623 12.2537 12.0623 10.6339C12.0623 9.01404 10.7375 7.69573 9.10982 7.69573C7.48209 7.69573 6.15736 9.01404 6.15736 10.6339C6.156 12.2537 7.48209 13.572 9.10982 13.572ZM9.10982 8.34599C10.3788 8.34599 11.4087 9.3736 11.4087 10.6338C11.4087 11.8966 10.3761 12.9215 9.10982 12.9215C7.8408 12.9215 6.81089 11.8939 6.81089 10.6338C6.80953 9.3736 7.84352 8.34599 9.10982 8.34599ZM18.3544 7.23456C18.2253 7.10612 18.2253 6.90195 18.3544 6.77486L20.6193 4.5209C20.7484 4.39245 20.9536 4.39245 21.0813 4.5209C21.2103 4.64935 21.2103 4.85352 21.0813 4.98061L19.05 7.00199L21.0813 9.02338C21.2103 9.15183 21.2103 9.356 21.0813 9.48309C21.0188 9.54529 20.9345 9.57638 20.8516 9.57638C20.7688 9.57638 20.6845 9.54529 20.622 9.48309L18.3544 7.23456ZM25.0295 9.02747L27.0608 7.00608L25.0295 4.98469C24.9004 4.85624 24.9004 4.65207 25.0295 4.52498C25.1586 4.39653 25.3638 4.39653 25.4915 4.52498L27.7564 6.77894C27.8855 6.90739 27.8855 7.11156 27.7564 7.23865L25.4915 9.49261C25.429 9.55481 25.3447 9.5859 25.2618 9.5859C25.179 9.5859 25.0947 9.55481 25.0322 9.49261C24.9004 9.3601 24.9004 9.15188 25.0295 9.02747ZM21.895 10.0551L23.5825 3.78269C23.6274 3.60962 23.8081 3.5055 23.982 3.55418C24.1559 3.5988 24.2605 3.77863 24.2116 3.95168L22.5241 10.2241C22.486 10.3701 22.3542 10.4661 22.2075 10.4661C22.1803 10.4661 22.1518 10.4621 22.1246 10.4553C21.9507 10.4093 21.8461 10.2281 21.895 10.0551ZM23.1545 17.4012C23.1545 17.581 23.0078 17.7271 22.8271 17.7271H21.9303C21.7496 17.7271 21.6029 17.581 21.6029 17.4012C21.6029 17.2214 21.7496 17.0754 21.9303 17.0754H22.8271C23.0078 17.0754 23.1545 17.2214 23.1545 17.4012ZM21.9331 13.3029H23.7034C23.8841 13.3029 24.0309 13.4489 24.0309 13.6288C24.0309 13.8086 23.8841 13.9546 23.7034 13.9546H21.9331C21.7524 13.9546 21.6056 13.8086 21.6056 13.6288C21.607 13.4476 21.7523 13.3029 21.9331 13.3029ZM22.7265 12.0671C22.5458 12.0671 22.3991 11.9211 22.3991 11.7412C22.3991 11.5614 22.5458 11.4154 22.7265 11.4154H26.1382C26.3189 11.4154 26.4657 11.5614 26.4657 11.7412C26.4657 11.9211 26.3189 12.0671 26.1382 12.0671H22.7265ZM21.0078 13.6274C21.0078 13.8073 20.861 13.9533 20.6803 13.9533H19.6817C19.501 13.9533 19.3542 13.8073 19.3542 13.6274C19.3542 13.4476 19.501 13.3016 19.6817 13.3016H20.6803C20.8624 13.3029 21.0078 13.4476 21.0078 13.6274ZM21.0078 17.401C21.0078 17.5809 20.861 17.7269 20.6803 17.7269H19.6817C19.501 17.7269 19.3542 17.5809 19.3542 17.401C19.3542 17.2212 19.501 17.0752 19.6817 17.0752H20.6803C20.8624 17.0752 21.0078 17.2212 21.0078 17.401ZM21.0078 15.5149C21.0078 15.6947 20.861 15.8407 20.6803 15.8407H19.6817C19.501 15.8407 19.3542 15.6947 19.3542 15.5149C19.3542 15.335 19.501 15.189 19.6817 15.189H20.6803C20.8624 15.189 21.0078 15.3337 21.0078 15.5149ZM21.607 15.5149C21.607 15.335 21.7537 15.189 21.9344 15.189H25.1899C25.3706 15.189 25.5173 15.335 25.5173 15.5149C25.5173 15.6947 25.3706 15.8407 25.1899 15.8407H21.9344C21.7524 15.8394 21.607 15.6947 21.607 15.5149ZM29.0053 15.5149C29.0053 15.6947 28.8585 15.8407 28.6778 15.8407H26.4373C26.2566 15.8407 26.1099 15.6947 26.1099 15.5149C26.1099 15.335 26.2566 15.189 26.4373 15.189H28.6778C28.8585 15.189 29.0053 15.3337 29.0053 15.5149ZM24.9562 13.3028H28.6818C28.8625 13.3028 29.0092 13.4488 29.0092 13.6287C29.0092 13.8085 28.8625 13.9545 28.6818 13.9545L24.9562 13.9532C24.7755 13.9532 24.6288 13.8071 24.6288 13.6273C24.6288 13.4475 24.7755 13.3028 24.9562 13.3028ZM17.1057 11.7411C17.1057 11.5613 17.2525 11.4153 17.4332 11.4153H18.4318C18.6125 11.4153 18.7593 11.5613 18.7593 11.7411C18.7593 11.921 18.6125 12.067 18.4318 12.067H17.4332C17.2525 12.067 17.1057 11.921 17.1057 11.7411ZM26.9945 17.4012C26.9945 17.581 26.8477 17.7271 26.667 17.7271H24.076C23.8953 17.7271 23.7485 17.581 23.7485 17.4012C23.7485 17.2214 23.8953 17.0754 24.076 17.0754H26.667C26.8491 17.0754 26.9945 17.2214 26.9945 17.4012ZM29.0053 17.4012C29.0053 17.581 28.8586 17.7271 28.6779 17.7271H27.9197C27.739 17.7271 27.5923 17.581 27.5923 17.4012C27.5923 17.2214 27.739 17.0754 27.9197 17.0754H28.6779C28.8586 17.0754 29.0053 17.2214 29.0053 17.4012ZM19.6832 11.4168H21.4781C21.6588 11.4168 21.8055 11.5628 21.8055 11.7427C21.8055 11.9225 21.6588 12.0685 21.4781 12.0685H19.6832C19.5025 12.0685 19.3558 11.9225 19.3558 11.7427C19.3558 11.5615 19.5025 11.4168 19.6832 11.4168Z" fill="white"/>
</svg>
