<svg width="130" height="65" viewBox="0 0 130 65" fill="none" xmlns="http://www.w3.org/2000/svg">
<g id="Group 495">
<g id="XMLID_933_">
<path id="XMLID_956_" d="M37.8693 14.9819L31.4674 40.9126H22.5357L18.9476 25.0419L15.2819 40.9126H6.35027L0 14.9819H7.84749L10.8936 32.6957L14.998 14.9819H22.9746L26.9757 32.5677L30.0218 14.9819H37.8693Z" fill="#2D3353"/>
<path id="XMLID_958_" d="M41.5347 17.3111C40.7603 16.62 40.373 15.724 40.373 14.6745C40.373 13.5994 40.7603 12.7035 41.5347 11.9867C42.3091 11.27 43.3417 10.9116 44.6324 10.9116C45.8973 10.9116 46.904 11.27 47.6784 11.9867C48.4529 12.7035 48.8401 13.5994 48.8401 14.6745C48.8401 15.724 48.4529 16.5944 47.6784 17.3111C46.904 18.0023 45.8715 18.3606 44.6324 18.3606C43.3417 18.3606 42.3091 18.0023 41.5347 17.3111ZM48.2205 20.2549V40.8868H40.9668V20.2549H48.2205Z" fill="#2D3353"/>
<path id="XMLID_961_" d="M59.27 34.8969H68.1242V40.8868H51.2676V35.1785L59.5281 26.2448H51.345V20.2549H67.8402V25.9632L59.27 34.8969Z" fill="#2D3353"/>
<path id="XMLID_963_" d="M90.9431 32.0301H77.1841C77.2616 33.1564 77.5713 34.0011 78.1393 34.5387C78.7072 35.0762 79.4041 35.3578 80.2818 35.3578C81.4951 35.3578 82.347 34.8202 82.8891 33.7451H90.6333C90.3235 35.1786 89.6782 36.4329 88.7489 37.5592C87.8196 38.6855 86.6579 39.5559 85.2381 40.1958C83.8184 40.8358 82.2695 41.1429 80.5658 41.1429C78.5265 41.1429 76.6937 40.7078 75.0932 39.863C73.4927 38.9927 72.2536 37.7896 71.3501 36.1769C70.4467 34.5898 70.0078 32.7212 70.0078 30.5454C70.0078 28.3951 70.4467 26.5265 71.3501 24.9394C72.2278 23.3524 73.4927 22.1493 75.0674 21.2789C76.6679 20.4086 78.5007 19.999 80.5658 19.999C82.6051 19.999 84.4379 20.4086 86.0126 21.2533C87.5872 22.0981 88.8263 23.2756 89.7298 24.837C90.6075 26.3985 91.0721 28.216 91.0721 30.3406C91.0463 30.9037 90.9947 31.4669 90.9431 32.0301ZM83.6377 28.5231C83.6377 27.6528 83.3537 26.9361 82.76 26.4497C82.1663 25.9377 81.4176 25.7074 80.54 25.7074C79.6623 25.7074 78.9137 25.9377 78.3458 26.4241C77.7779 26.9105 77.4165 27.6016 77.2358 28.5487H83.6377V28.5231Z" fill="#2D3353"/>
</g>
<g id="XMLID_204_">
<path id="XMLID_227_" d="M6.04098 63.6692C4.54376 62.8501 3.35631 61.6726 2.47863 60.2135C1.60095 58.7288 1.16211 57.065 1.16211 55.2219C1.16211 53.3533 1.60095 51.6894 2.47863 50.2303C3.35631 48.7456 4.54376 47.6193 6.04098 46.7746C7.53819 45.9555 9.1903 45.5459 10.9715 45.5459C12.7785 45.5459 14.4306 45.9555 15.902 46.7746C17.3992 47.5937 18.5608 48.7456 19.4385 50.2303C20.3162 51.715 20.7292 53.3789 20.7292 55.2219C20.7292 57.0906 20.2904 58.7544 19.4385 60.2135C18.5608 61.6982 17.3992 62.8501 15.902 63.6692C14.4048 64.4884 12.7526 64.9235 10.9715 64.9235C9.16448 64.9235 7.53819 64.514 6.04098 63.6692ZM14.1724 58.7288C14.9468 57.8585 15.3599 56.681 15.3599 55.2219C15.3599 53.7116 14.9727 52.5341 14.1724 51.6638C13.398 50.7935 12.3138 50.3583 10.9715 50.3583C9.60332 50.3583 8.51913 50.7935 7.74471 51.6638C6.97028 52.5341 6.58307 53.7116 6.58307 55.2219C6.58307 56.7066 6.97028 57.8841 7.74471 58.7544C8.51913 59.6248 9.60332 60.0599 10.9715 60.0599C12.3138 60.0343 13.3722 59.5992 14.1724 58.7288Z" fill="#2CB78C"/>
<path id="XMLID_559_" d="M30.1508 50.1021C30.8994 49.6926 31.8029 49.4878 32.8354 49.4878C34.0487 49.4878 35.1329 49.795 36.1138 50.4349C37.0948 51.0493 37.8692 51.9452 38.4371 53.1227C39.005 54.2746 39.289 55.6313 39.289 57.1928C39.289 58.7543 39.005 60.1109 38.4371 61.2884C37.8692 62.466 37.0948 63.3619 36.1138 63.9762C35.1329 64.5906 34.0229 64.9233 32.8354 64.9233C31.8029 64.9233 30.9252 64.7186 30.1508 64.309C29.4022 63.8994 28.8084 63.3363 28.3954 62.6451V64.7442H23.1035V44.9058H28.3954V51.7916C28.8084 51.0749 29.4022 50.5117 30.1508 50.1021ZM33.1194 54.9146C32.5773 54.377 31.9319 54.0954 31.1575 54.0954C30.3831 54.0954 29.7377 54.377 29.1956 54.9146C28.6536 55.4777 28.3954 56.2201 28.3954 57.1928C28.3954 58.1655 28.6536 58.9334 29.1956 59.4966C29.7377 60.0597 30.3831 60.3157 31.1575 60.3157C31.9319 60.3157 32.5773 60.0341 33.1194 59.471C33.6615 58.9078 33.9196 58.1399 33.9196 57.1672C33.9196 56.22 33.6615 55.4521 33.1194 54.9146Z" fill="#2CB78C"/>
<path id="XMLID_581_" d="M44.2967 64.2321C43.2125 63.7713 42.3865 63.157 41.7669 62.3634C41.1474 61.5699 40.786 60.674 40.7344 59.6756H45.8714C45.9488 60.162 46.1812 60.546 46.5426 60.802C46.9298 61.0579 47.3944 61.2115 47.9365 61.2115C48.3754 61.2115 48.7109 61.1347 48.9691 60.9555C49.2272 60.7764 49.3563 60.546 49.3563 60.2644C49.3563 59.8804 49.1498 59.6245 48.7368 59.4453C48.3237 59.2661 47.6267 59.0613 46.6716 58.8565C45.5874 58.6517 44.6839 58.3957 43.9611 58.1398C43.2383 57.8838 42.6188 57.423 42.0767 56.8343C41.5346 56.2199 41.2765 55.4008 41.2765 54.3769C41.2765 53.481 41.5088 52.6618 41.9993 51.9451C42.4897 51.2283 43.2125 50.6396 44.1418 50.2044C45.097 49.7692 46.2328 49.5645 47.5751 49.5645C49.5628 49.5645 51.1117 50.0508 52.2475 51.0235C53.3833 51.9963 54.0286 53.2506 54.2093 54.8376H49.4337C49.3305 54.3513 49.124 53.9929 48.7884 53.7369C48.4528 53.481 48.014 53.353 47.446 53.353C47.0072 53.353 46.6716 53.4297 46.4651 53.5833C46.2328 53.7369 46.1295 53.9673 46.1295 54.2489C46.1295 54.6073 46.336 54.8888 46.7491 55.068C47.1621 55.2472 47.8333 55.452 48.7626 55.6568C49.8726 55.8872 50.7761 56.1431 51.4989 56.4247C52.2217 56.7063 52.867 57.167 53.4091 57.807C53.9512 58.4469 54.2352 59.3173 54.2352 60.3924C54.2352 61.2627 53.977 62.0563 53.4607 62.7474C52.9445 63.4385 52.2217 64.0017 51.2665 64.3857C50.3114 64.7952 49.2014 65 47.9365 65C46.5942 64.9232 45.3551 64.6929 44.2967 64.2321Z" fill="#2CB78C"/>
<path id="XMLID_583_" d="M71.2726 58.2679H61.2309C61.2825 59.087 61.5149 59.7014 61.9279 60.1109C62.3409 60.5205 62.8572 60.7253 63.4768 60.7253C64.3544 60.7253 64.9998 60.3413 65.3612 59.5478H71.0145C70.7821 60.5973 70.3175 61.5188 69.6463 62.3124C68.9752 63.1315 68.1233 63.7715 67.0907 64.2322C66.0582 64.693 64.9223 64.9234 63.6833 64.9234C62.186 64.9234 60.8695 64.6162 59.6821 63.9762C58.5204 63.3619 57.617 62.466 56.9458 61.2885C56.2746 60.1365 55.9648 58.7543 55.9648 57.1928C55.9648 55.6313 56.3004 54.249 56.9458 53.0971C57.5911 51.9452 58.4946 51.0493 59.6563 50.4349C60.8179 49.8206 62.1602 49.4878 63.6833 49.4878C65.1805 49.4878 66.497 49.795 67.6586 50.4093C68.8203 51.0237 69.7238 51.894 70.3691 53.0203C71.0145 54.1466 71.3501 55.5033 71.3501 57.0392C71.3501 57.4488 71.3242 57.8583 71.2726 58.2679ZM65.9291 55.7337C65.9291 55.0937 65.7226 54.5818 65.2837 54.2234C64.8449 53.865 64.3028 53.6859 63.6575 53.6859C63.0121 53.6859 62.47 53.865 62.057 54.1978C61.6439 54.5562 61.36 55.0682 61.2567 55.7337H65.9291Z" fill="#2CB78C"/>
<path id="XMLID_848_" d="M80.9798 50.3068C81.8317 49.7948 82.7352 49.5645 83.7161 49.5645V55.1704H82.2189C81.0572 55.1704 80.2054 55.4008 79.6375 55.8359C79.0696 56.2711 78.8114 57.0647 78.8114 58.1654V64.744H73.5195V49.6924H78.8114V52.3546C79.4051 51.4843 80.1279 50.8188 80.9798 50.3068Z" fill="#2CB78C"/>
<path id="XMLID_930_" d="M92.8789 59.778L95.7184 49.6924H101.372L96.1315 64.744H89.523L84.3086 49.6924H89.9619L92.8789 59.778Z" fill="#2CB78C"/>
<path id="XMLID_935_" d="M117.558 58.2679H107.516C107.568 59.087 107.8 59.7014 108.213 60.1109C108.626 60.5205 109.142 60.7253 109.762 60.7253C110.64 60.7253 111.285 60.3413 111.646 59.5478H117.3C117.067 60.5973 116.603 61.5188 115.931 62.3124C115.26 63.1315 114.408 63.7715 113.376 64.2322C112.343 64.693 111.207 64.9234 109.968 64.9234C108.471 64.9234 107.155 64.6162 105.967 63.9762C104.806 63.3619 103.902 62.466 103.231 61.2885C102.56 60.1365 102.25 58.7543 102.25 57.1928C102.25 55.6313 102.586 54.249 103.231 53.0971C103.876 51.9452 104.78 51.0493 105.941 50.4349C107.103 49.8206 108.445 49.4878 109.968 49.4878C111.466 49.4878 112.782 49.795 113.944 50.4093C115.105 51.0237 116.009 51.894 116.654 53.0203C117.3 54.1466 117.635 55.5033 117.635 57.0392C117.635 57.4488 117.609 57.8583 117.558 58.2679ZM112.24 55.7337C112.24 55.0937 112.034 54.5818 111.595 54.2234C111.156 53.865 110.614 53.6859 109.968 53.6859C109.323 53.6859 108.781 53.865 108.368 54.1978C107.955 54.5562 107.671 55.0682 107.568 55.7337H112.24Z" fill="#2CB78C"/>
<path id="XMLID_940_" d="M127.265 50.3068C128.117 49.7948 129.02 49.5645 130.001 49.5645V55.1704H128.504C127.342 55.1704 126.491 55.4008 125.923 55.8359C125.355 56.2711 125.097 57.0647 125.097 58.1654V64.744H119.805V49.6924H125.097V52.3546C125.69 51.4843 126.413 50.8188 127.265 50.3068Z" fill="#2CB78C"/>
</g>
<path id="XMLID_932_" d="M44.6065 18.8979C47.0729 18.8979 49.0723 16.9152 49.0723 14.4695C49.0723 12.0237 47.0729 10.041 44.6065 10.041C42.14 10.041 40.1406 12.0237 40.1406 14.4695C40.1406 16.9152 42.14 18.8979 44.6065 18.8979Z" fill="#2CB78C"/>
<path id="XMLID_880_" d="M100.34 38.2759C100.237 38.4551 100.134 38.6342 100.056 38.8134C99.9012 39.223 100.211 39.6838 100.65 39.6838H115.493C115.932 39.6838 116.242 39.2486 116.087 38.8134C116.009 38.6342 115.932 38.4551 115.803 38.2759H100.34Z" fill="#2D3453"/>
<path id="XMLID_854_" d="M101.992 36.8164C101.269 37.2516 100.701 37.7379 100.34 38.3011H115.777C115.415 37.7379 114.847 37.2516 114.125 36.8164H101.992Z" fill="#2CB78C"/>
<path id="XMLID_810_" d="M121.017 21.2276C121.017 14.137 115.209 8.37744 108.058 8.37744C100.908 8.37744 95.0996 14.137 95.0996 21.2276C95.0996 27.1663 99.1524 32.1323 104.651 33.617L104.186 35.8696C103.36 36.1 102.612 36.4328 101.966 36.7912H114.099C113.479 36.4328 112.731 36.1 111.879 35.8696L111.414 33.617C116.964 32.1579 121.017 27.1663 121.017 21.2276ZM108.084 32.3627C101.889 32.3627 96.855 27.3711 96.855 21.2276C96.855 15.0841 101.889 10.0925 108.084 10.0925C114.279 10.0925 119.313 15.0841 119.313 21.2276C119.313 27.3711 114.279 32.3627 108.084 32.3627Z" fill="#2D3453"/>
<path id="XMLID_728_" d="M96.8535 21.2274C96.8535 27.3709 101.887 32.3625 108.083 32.3625C114.278 32.3625 119.312 27.3709 119.312 21.2274C119.312 15.0839 114.278 10.0923 108.083 10.0923C101.861 10.0923 96.8535 15.0839 96.8535 21.2274ZM118.382 21.2274C118.382 26.8845 113.762 31.441 108.083 31.441C102.378 31.441 97.7828 26.8589 97.7828 21.2274C97.7828 15.5702 102.404 11.0138 108.083 11.0138C113.762 11.0138 118.382 15.5958 118.382 21.2274Z" fill="#AAD3C7"/>
<path id="XMLID_590_" d="M97.7578 21.2273C97.7578 26.8844 102.379 31.4408 108.058 31.4408C113.763 31.4408 118.357 26.8588 118.357 21.2273C118.357 15.5701 113.737 11.0137 108.058 11.0137C102.379 11.0137 97.7578 15.5957 97.7578 21.2273ZM114.537 21.2273C114.537 24.7598 111.646 27.6267 108.083 27.6267C104.521 27.6267 101.63 24.7598 101.63 21.2273C101.63 17.6947 104.521 14.8278 108.083 14.8278C111.646 14.8278 114.537 17.6947 114.537 21.2273Z" fill="#2CB78C"/>
<path id="XMLID_444_" d="M101.604 21.2276C101.604 24.7601 104.495 27.6271 108.057 27.6271C111.619 27.6271 114.511 24.7601 114.511 21.2276C114.511 17.6951 111.619 14.8281 108.057 14.8281C104.495 14.8281 101.604 17.6951 101.604 21.2276ZM110.432 21.2276C110.432 22.5075 109.374 23.557 108.083 23.557C106.792 23.557 105.734 22.5075 105.734 21.2276C105.734 19.9477 106.792 18.8982 108.083 18.8982C109.374 18.8982 110.432 19.9477 110.432 21.2276ZM109.012 16.0312C109.064 16.108 109.064 16.1848 109.038 16.2616L108.728 17.1831C108.702 17.2855 108.599 17.3367 108.496 17.3623C106.87 17.4647 105.347 18.2327 104.34 19.5126C104.262 19.5893 104.159 19.6405 104.056 19.5893L103.152 19.2822C103.023 19.231 102.946 19.0774 102.997 18.9494L103.023 18.8726C104.366 17.0296 106.508 15.9288 108.806 15.9032C108.883 15.9032 108.961 15.9544 109.012 16.0312Z" fill="#2D3453"/>
<path id="XMLID_443_" d="M103.024 18.8725L102.999 18.9493C102.947 19.0773 103.024 19.2308 103.153 19.282L104.057 19.5892C104.16 19.6148 104.263 19.5892 104.341 19.5124C105.348 18.2581 106.871 17.4646 108.497 17.3622C108.6 17.3622 108.704 17.2854 108.729 17.183L109.039 16.2615C109.065 16.1847 109.065 16.0823 109.013 16.0311C108.962 15.9543 108.884 15.9287 108.807 15.9287C106.509 15.9287 104.367 17.0294 103.024 18.8725Z" fill="white"/>
<path id="XMLID_441_" d="M108.083 23.5568C109.381 23.5568 110.433 22.5139 110.433 21.2274C110.433 19.9409 109.381 18.8979 108.083 18.8979C106.786 18.8979 105.734 19.9409 105.734 21.2274C105.734 22.5139 106.786 23.5568 108.083 23.5568Z" fill="white"/>
<path id="XMLID_434_" d="M128.166 13.2409C127.702 6.25269 121.48 1.46587 115.13 1.87543C115.104 1.26108 115.079 0.672337 115.053 0.057986C122.461 -0.658756 129.689 5.35676 129.999 13.2409C129.38 13.2409 128.786 13.2409 128.166 13.2409Z" fill="#E7E7E7"/>
<path id="XMLID_431_" d="M115.286 5.35665C115.26 4.74229 115.26 4.12794 115.234 3.53919C120.475 2.87364 126.309 7.35329 126.489 13.4456C125.87 13.4456 125.276 13.4456 124.657 13.4456C124.269 8.32601 119.803 5.07507 115.286 5.35665Z" fill="#E7E7E7"/>
<path id="XMLID_421_" d="M122.978 13.6505C122.384 13.6761 121.79 13.6761 121.196 13.7017C120.938 10.8348 118.563 8.68453 115.595 8.76132C115.543 8.17257 115.492 7.58381 115.414 6.99506C119.183 6.4575 123.081 9.93882 122.978 13.6505Z" fill="#E7E7E7"/>
</g>
</svg>
