<svg width="25" height="30" viewBox="0 0 25 30" fill="none" xmlns="http://www.w3.org/2000/svg">
<g id="3">
<path id="Vector" d="M12.4439 2.32198C13.204 2.32198 13.8224 2.92601 13.8224 3.66844H15.2009C15.2009 2.18358 13.9654 0.976807 12.4452 0.976807C10.925 0.976807 9.68945 2.18358 9.68945 3.66844H11.068C11.0653 2.92601 11.6837 2.32198 12.4439 2.32198Z" fill="white"/>
<path id="Vector_2" d="M12.4389 28.5683C11.5675 28.5683 10.7664 28.2721 10.2367 27.7535C9.98507 27.5077 9.68712 27.1003 9.68712 26.5506L8.3086 26.548C8.30727 27.337 8.64495 28.1027 9.26072 28.7054C10.046 29.4737 11.2047 29.9148 12.4375 29.9148C14.7165 29.9148 16.5731 28.4053 16.5771 26.5506L15.1986 26.548C15.1972 27.6629 13.9591 28.5683 12.4389 28.5683Z" fill="white"/>
<path id="Vector_3" d="M24.8311 23.017C24.9199 22.0715 25.0245 20.6422 24.3902 19.4988L24.2803 19.3863C24.0909 19.1664 23.8671 18.9633 23.6301 18.7499C22.7031 17.9105 21.4332 16.7606 21.1604 13.3796C20.7909 8.88749 17.6776 4.34106 12.4443 4.34106C7.21093 4.34106 4.09767 8.88749 3.72821 13.3796C3.45409 16.7593 2.18548 17.9092 1.25852 18.7486C1.02148 18.9633 0.797688 19.1664 0.608323 19.385L0.530193 19.4975C-0.104113 20.6409 -0.03128 22.0689 0.0587677 23.0157C0.0826038 23.2653 0.0428768 23.4826 0.0428768 23.652V24.0465L0.456037 24.2405C3.37199 25.8328 7.19372 26.5739 12.4138 26.5739C17.6353 26.5739 21.5007 25.8328 24.418 24.2405L24.847 24.0478V23.6533C24.847 23.4839 24.8073 23.2653 24.8311 23.017ZM23.397 22.8928C23.3851 23.0157 23.3745 23.1321 23.3665 23.2407C20.7048 24.595 17.2195 25.2274 12.4456 25.2274C7.67176 25.2274 4.18639 24.595 1.52337 23.2407C1.5141 23.1321 1.5035 23.0157 1.49291 22.8928C1.4161 22.0831 1.31281 20.9824 1.71008 20.2012C1.83986 20.0602 2.00671 19.9088 2.1974 19.7355C3.22897 18.8017 4.78759 17.3892 5.10408 13.4869C5.41263 9.7308 7.84259 5.68753 12.4456 5.68753C17.0486 5.68753 19.4786 9.7308 19.7871 13.4869C20.1036 17.3905 21.6636 18.803 22.6952 19.7368C22.8858 19.9101 23.0527 20.0615 23.1825 20.2024C23.5771 20.9811 23.4725 22.0831 23.397 22.8928Z" fill="white"/>
</g>
</svg>
