<svg width="35" height="29" viewBox="0 0 35 29" fill="none" xmlns="http://www.w3.org/2000/svg">
<g id="6">
<path id="Vector" fill-rule="evenodd" clip-rule="evenodd" d="M4.11259 5.72363C1.84904 5.72363 0 7.52973 0 9.7407V24.0509C0 26.2618 1.84904 28.0679 4.11259 28.0679H30.159C32.4226 28.0679 34.2716 26.2618 34.2716 24.0509V9.7407C34.2716 7.52973 32.4226 5.72363 30.159 5.72363H4.11259ZM4.11259 7.39741H30.159C31.5029 7.39741 32.558 8.42804 32.558 9.7407V24.0509C32.558 25.3635 31.5029 26.3941 30.159 26.3941H4.11259C2.76872 26.3941 1.71358 25.3635 1.71358 24.0509V9.7407C1.71358 8.42804 2.76872 7.39741 4.11259 7.39741Z" fill="white"/>
<path id="Vector_2" fill-rule="evenodd" clip-rule="evenodd" d="M23.0419 12.3284L15.7162 19.4844C15.5941 19.6037 15.422 19.6037 15.2999 19.4844L11.23 15.5092C11.0694 15.3523 10.8515 15.2642 10.6243 15.2642C10.397 15.2642 10.1791 15.3523 10.0185 15.5092C9.85782 15.6662 9.76758 15.879 9.76758 16.1009C9.76758 16.3229 9.85782 16.5357 10.0185 16.6926L14.0883 20.6678C14.8652 21.4267 16.1509 21.4267 16.9278 20.6678L24.2535 13.5118C24.4141 13.3549 24.5044 13.1421 24.5044 12.9201C24.5044 12.6982 24.4141 12.4854 24.2535 12.3284C24.0928 12.1715 23.8749 12.0834 23.6477 12.0834C23.4205 12.0834 23.2026 12.1715 23.0419 12.3284Z" fill="white"/>
<path id="Vector_3" fill-rule="evenodd" clip-rule="evenodd" d="M4.112 0.953491C2.79197 0.953491 1.58105 1.68393 0.990742 2.83721L0.0904432 4.59605C-0.0111453 4.79453 -0.0278799 5.02429 0.0439194 5.23481C0.115719 5.44534 0.270173 5.61939 0.473321 5.7187C0.573962 5.76794 0.68355 5.79732 0.795821 5.80517C0.908092 5.81302 1.02085 5.79919 1.12764 5.76445C1.23444 5.72972 1.33318 5.67478 1.41822 5.60275C1.50327 5.53073 1.57295 5.44304 1.62329 5.3447L2.52292 3.58587C2.82458 2.99652 3.43737 2.62668 4.112 2.62668H30.1598C30.838 2.62668 31.4543 2.99633 31.7622 3.58652L32.6518 5.29043C32.755 5.48807 32.9343 5.63758 33.1504 5.70612C33.3664 5.77466 33.6014 5.75661 33.8038 5.65593C33.9041 5.60602 33.9933 5.5373 34.0664 5.4537C34.1394 5.37009 34.1949 5.27325 34.2297 5.16869C34.2644 5.06413 34.2777 4.95392 34.2689 4.84433C34.26 4.73474 34.2291 4.62794 34.178 4.53001L33.2891 2.8261C32.6902 1.67819 31.4788 0.953491 30.1598 0.953491H4.112Z" fill="white"/>
</g>
</svg>
